<svg width="24" height="24" viewBox="0 0 24 24" fill="none" xmlns="http://www.w3.org/2000/svg">
<rect width="24" height="24" rx="10" fill="white"/>
<path d="M14.4983 12.0071C14.4986 12.157 14.4405 12.3023 14.3341 12.4178L10.7645 16.2682C10.6433 16.3992 10.4692 16.4816 10.2804 16.4973C10.0917 16.5129 9.9037 16.4605 9.7579 16.3516C9.61211 16.2427 9.52043 16.0861 9.50302 15.9165C9.48562 15.7468 9.54392 15.5778 9.66509 15.4468L12.8634 12.0071L9.77932 8.56736C9.72002 8.50172 9.67573 8.42619 9.64901 8.34512C9.62229 8.26404 9.61365 8.17902 9.6236 8.09493C9.63356 8.01085 9.6619 7.92936 9.707 7.85515C9.7521 7.78094 9.81307 7.71548 9.88641 7.66252C9.95981 7.60375 10.0459 7.55924 10.1394 7.53178C10.2328 7.50432 10.3315 7.4945 10.4294 7.50293C10.5272 7.51136 10.6221 7.53787 10.708 7.58079C10.7939 7.62371 10.8691 7.68212 10.9287 7.75236L14.3769 11.6028C14.4666 11.7215 14.5093 11.8639 14.4983 12.0071Z" fill="#2C2C2C"/>
</svg>
